<svg width="150" height="208" viewBox="0 0 150 208" fill="none" xmlns="http://www.w3.org/2000/svg">
<mask id="mask0_11_38" style="mask-type:luminance" maskUnits="userSpaceOnUse" x="0" y="41" width="131" height="167">
<path d="M0 41.7112H130.21V207.416H0V41.7112Z" fill="white"/>
</mask>
<g mask="url(#mask0_11_38)">
<path d="M108.452 166.486C108.452 145.973 108.452 125.777 108.452 105.577C108.193 105.477 107.929 105.377 107.67 105.277C96.9293 118.763 86.1882 132.24 75.0585 146.215C71.0938 141.281 67.3003 136.556 63.1685 131.413C42.9103 156.868 22.8108 182.119 2.54847 207.583C1.62517 206.839 0.881521 206.25 0.00418091 205.544C43.14 151.316 86.1088 97.2844 129.629 42.5677C129.629 84.3917 129.629 125.338 129.629 166.486C122.677 166.486 115.905 166.486 108.452 166.486Z" fill="#32A1B9"/>
</g>
<mask id="mask1_11_38" style="mask-type:luminance" maskUnits="userSpaceOnUse" x="20" y="0" width="130" height="166">
<path d="M20.0493 0H150V165.775H20.0493V0Z" fill="white"/>
</mask>
<g mask="url(#mask1_11_38)">
<path d="M20.4921 43.1359C36.2341 62.9136 51.4831 82.0772 67.0705 101.667C68.257 100.246 69.2973 99.0349 70.2874 97.7899C95.2874 66.3394 120.283 34.8763 145.321 3.45504C146.428 2.07218 147.472 -1.11966 150.23 2.51503C118.804 42.0246 87.358 81.5675 55.5481 121.566C51.1155 116.072 46.8917 110.837 42.1791 105.001C41.9995 106.534 41.8073 107.416 41.8073 108.297C41.7864 117.413 41.8992 126.533 41.7112 135.645C41.6694 137.521 40.9676 139.702 39.8312 141.176C33.6815 149.215 27.2978 157.073 20.488 165.629C20.4921 124.574 20.4921 84.2998 20.4921 43.1359Z" fill="#32A1B9"/>
</g>
</svg>
